<svg width="16" height="16" viewBox="0 0 16 16" fill="none" xmlns="http://www.w3.org/2000/svg">
<g clip-path="url(#clip0_96_9718)">
<path d="M7.68147 1.52955C7.71068 1.47054 7.7558 1.42087 7.81174 1.38614C7.86768 1.35141 7.93221 1.33301 7.99805 1.33301C8.0639 1.33301 8.12843 1.35141 8.18437 1.38614C8.24031 1.42087 8.28543 1.47054 8.31463 1.52955L9.85421 4.64802C9.95563 4.85327 10.1053 5.03085 10.2905 5.16551C10.4757 5.30017 10.6907 5.38789 10.9172 5.42114L14.3603 5.925C14.4255 5.93445 14.4868 5.96197 14.5372 6.00444C14.5877 6.04692 14.6252 6.10265 14.6456 6.16534C14.6659 6.22803 14.6684 6.29517 14.6526 6.35917C14.6368 6.42317 14.6034 6.48148 14.5562 6.5275L12.0663 8.95216C11.9021 9.11219 11.7792 9.30972 11.7083 9.52776C11.6373 9.74579 11.6204 9.97781 11.659 10.2038L12.2469 13.6295C12.2584 13.6947 12.2514 13.7619 12.2266 13.8233C12.2017 13.8847 12.1602 13.9379 12.1066 13.9768C12.053 14.0157 11.9896 14.0388 11.9235 14.0434C11.8575 14.0479 11.7915 14.0339 11.733 14.0028L8.65521 12.3845C8.45241 12.2781 8.22678 12.2224 7.99772 12.2224C7.76866 12.2224 7.54303 12.2781 7.34024 12.3845L4.26309 14.0028C4.20466 14.0337 4.13872 14.0476 4.07277 14.0429C4.00683 14.0382 3.94352 14.0151 3.89005 13.9763C3.83659 13.9374 3.7951 13.8843 3.77033 13.823C3.74555 13.7617 3.73847 13.6947 3.7499 13.6295L4.33707 10.2045C4.37585 9.97837 4.35905 9.74621 4.28811 9.52804C4.21716 9.30986 4.09421 9.11222 3.92985 8.95216L1.43987 6.52817C1.39228 6.4822 1.35855 6.42379 1.34254 6.3596C1.32652 6.2954 1.32886 6.22799 1.34928 6.16506C1.3697 6.10213 1.40739 6.04619 1.45805 6.00363C1.50871 5.96107 1.5703 5.9336 1.63581 5.92433L5.07819 5.42114C5.30497 5.38815 5.52033 5.30054 5.70574 5.16587C5.89116 5.03119 6.04106 4.85348 6.14257 4.64802L7.68147 1.52955Z" fill="#FF6B00" stroke="#FF6B00" stroke-width="0.999723" stroke-linecap="round" stroke-linejoin="round"/>
</g>
<defs>
<clipPath id="clip0_96_9718">
<rect width="15.9956" height="15.9956" fill="white"/>
</clipPath>
</defs>
</svg>
