<svg width="16" height="16" viewBox="0 0 16 16" fill="none" xmlns="http://www.w3.org/2000/svg">
<path d="M7.33186 14.4826C7.53449 14.5995 7.76436 14.6611 7.99834 14.6611C8.23232 14.6611 8.46219 14.5995 8.66482 14.4826L13.3302 11.8166C13.5326 11.6998 13.7008 11.5317 13.8178 11.3293C13.9347 11.1269 13.9964 10.8974 13.9967 10.6636V5.33176C13.9964 5.098 13.9347 4.86842 13.8178 4.66605C13.7008 4.46367 13.5326 4.29562 13.3302 4.17874L8.66482 1.51281C8.46219 1.39582 8.23232 1.33423 7.99834 1.33423C7.76436 1.33423 7.53449 1.39582 7.33186 1.51281L2.66648 4.17874C2.46405 4.29562 2.2959 4.46367 2.17892 4.66605C2.06194 4.86842 2.00024 5.098 2 5.33176V10.6636C2.00024 10.8974 2.06194 11.1269 2.17892 11.3293C2.2959 11.5317 2.46405 11.6998 2.66648 11.8166L7.33186 14.4826Z" stroke="#6A7282" stroke-width="0.999723" stroke-linecap="round" stroke-linejoin="round"/>
<path d="M7.99609 14.6626V7.9978" stroke="#6A7282" stroke-width="0.999723" stroke-linecap="round" stroke-linejoin="round"/>
<path d="M2.19141 4.66528L7.99647 7.99769L13.8015 4.66528" stroke="#6A7282" stroke-width="0.999723" stroke-linecap="round" stroke-linejoin="round"/>
<path d="M5 2.84595L10.9983 6.27833" stroke="#6A7282" stroke-width="0.999723" stroke-linecap="round" stroke-linejoin="round"/>
</svg>
