<svg width="28" height="28" viewBox="0 0 28 28" fill="none" xmlns="http://www.w3.org/2000/svg">
<path d="M12.8326 25.3496C13.1873 25.5543 13.5896 25.6622 13.9992 25.6622C14.4087 25.6622 14.8111 25.5543 15.1657 25.3496L23.3318 20.6833C23.6861 20.4787 23.9804 20.1845 24.1852 19.8303C24.3899 19.4761 24.4979 19.0742 24.4983 18.6651V9.3325C24.4979 8.92336 24.3899 8.52151 24.1852 8.16729C23.9804 7.81306 23.6861 7.5189 23.3318 7.31433L15.1657 2.64803C14.8111 2.44326 14.4087 2.33545 13.9992 2.33545C13.5896 2.33545 13.1873 2.44326 12.8326 2.64803L4.66657 7.31433C4.31224 7.5189 4.01794 7.81306 3.81318 8.16729C3.60842 8.52151 3.50042 8.92336 3.5 9.3325V18.6651C3.50042 19.0742 3.60842 19.4761 3.81318 19.8303C4.01794 20.1845 4.31224 20.4787 4.66657 20.6833L12.8326 25.3496Z" stroke="#FF6B00" stroke-width="1.74986" stroke-linecap="round" stroke-linejoin="round"/>
<path d="M14 25.6654V13.9988" stroke="#FF6B00" stroke-width="1.74986" stroke-linecap="round" stroke-linejoin="round"/>
<path d="M3.83984 8.16602L14.0007 13.9989L24.1616 8.16602" stroke="#FF6B00" stroke-width="1.74986" stroke-linecap="round" stroke-linejoin="round"/>
<path d="M8.75 4.9812L19.25 10.9895" stroke="#FF6B00" stroke-width="1.74986" stroke-linecap="round" stroke-linejoin="round"/>
</svg>
