<svg xmlns="http://www.w3.org/2000/svg" version="1.1" xmlns:xlink="http://www.w3.org/1999/xlink" xmlns:svgjs="http://svgjs.dev/svgjs" width="1500" height="337" viewBox="0 0 1500 337"><g transform="matrix(1,0,0,1,-0.9090909090909918,-1.7922595480649477)"><svg viewBox="0 0 396 89" data-background-color="#ffffff" preserveAspectRatio="xMidYMid meet" height="337" width="1500" xmlns="http://www.w3.org/2000/svg" xmlns:xlink="http://www.w3.org/1999/xlink"><g id="tight-bounds" transform="matrix(1,0,0,1,0.2400000000000091,0.4733267055720489)"><svg viewBox="0 0 395.52 88.05334658885589" height="88.05334658885589" width="395.52"><g><svg viewBox="0 0 534.9609670485509 119.09664098663927" height="88.05334658885589" width="395.52"><g transform="matrix(1,0,0,1,0,16.459810729701957)"><svg viewBox="0 0 395.52 86.17701952723536" height="86.17701952723536" width="395.52"><g id="textblocktransform"><svg viewBox="0 0 395.52 86.17701952723536" height="86.17701952723536" width="395.52" id="textblock"><g><svg viewBox="0 0 395.52 86.17701952723536" height="86.17701952723536" width="395.52"><g transform="matrix(1,0,0,1,0,0)"><svg width="395.52" viewBox="1.88 -33.33 202.68 44.16" height="86.17701952723536" data-palette-color="#03424c"><path d="M13.26 0.42L13.26 0.42Q10 0.42 7.41-1.04 4.83-2.5 3.35-5.02 1.88-7.53 1.88-10.63L1.88-10.63Q1.88-13.58 3.3-15.99 4.72-18.4 7.14-19.83 9.55-21.25 12.47-21.25L12.47-21.25Q15.35-21.25 17.74-19.88 20.14-18.51 21.56-16.18 22.99-13.85 22.99-10.9L22.99-10.9 22.99-9.38 9.38-9.38Q8.47-9.38 7.53-9.44 6.6-9.51 5.69-9.65L5.69-9.65Q6.08-6.88 8.21-5 10.35-3.13 13.3-3.13L13.3-3.13Q15.28-3.13 16.98-4.03 18.68-4.93 19.72-6.42L19.72-6.42 20.76-2.15Q19.27-0.94 17.34-0.26 15.42 0.42 13.26 0.42ZM5.59-12.19L5.59-12.19Q7.47-12.5 9.38-12.5L9.38-12.5 16.28-12.5Q17.05-12.5 17.8-12.45 18.54-12.4 19.31-12.33L19.31-12.33Q18.82-14.76 16.88-16.34 14.93-17.92 12.47-17.92L12.47-17.92Q9.93-17.92 8.02-16.23 6.11-14.55 5.59-12.19ZM46.11-20.83L35.59 1.04 25.07-20.83 29.34-20.83 33.57-11.81Q34.16-10.59 34.69-9.41 35.21-8.23 35.69-6.53L35.69-6.53Q36.21-8.23 36.75-9.43 37.29-10.63 37.84-11.81L37.84-11.81 42.12-20.83 46.11-20.83ZM59.79 0.42L59.79 0.42Q56.52 0.42 53.94-1.04 51.35-2.5 49.87-5.02 48.4-7.53 48.4-10.63L48.4-10.63Q48.4-13.58 49.82-15.99 51.24-18.4 53.66-19.83 56.07-21.25 58.99-21.25L58.99-21.25Q61.87-21.25 64.27-19.88 66.66-18.51 68.09-16.18 69.51-13.85 69.51-10.9L69.51-10.9 69.51-9.38 55.9-9.38Q54.99-9.38 54.06-9.44 53.12-9.51 52.22-9.65L52.22-9.65Q52.6-6.88 54.73-5 56.87-3.13 59.82-3.13L59.82-3.13Q61.8-3.13 63.5-4.03 65.2-4.93 66.25-6.42L66.25-6.42 67.29-2.15Q65.79-0.94 63.87-0.26 61.94 0.42 59.79 0.42ZM52.11-12.19L52.11-12.19Q53.99-12.5 55.9-12.5L55.9-12.5 62.81-12.5Q63.57-12.5 64.32-12.45 65.06-12.4 65.83-12.33L65.83-12.33Q65.34-14.76 63.4-16.34 61.45-17.92 58.99-17.92L58.99-17.92Q56.45-17.92 54.54-16.23 52.63-14.55 52.11-12.19ZM78.26 0L74.51 0 74.51-20.83 77.98-20.83 77.98-17.01Q79.09-18.85 80.93-19.95 82.77-21.04 85.3-21.04L85.3-21.04 86.24-17.29Q85.58-17.5 84.71-17.5L84.71-17.5Q81.8-17.5 80.03-15.64 78.26-13.78 78.26-10.35L78.26-10.35 78.26 0ZM98.57 10.83L98.57 10.83Q96.17 10.83 94.21 10.14 92.25 9.44 90.72 8.23L90.72 8.23 91.76 3.99Q92.8 5.49 94.54 6.42 96.27 7.36 98.53 7.36L98.53 7.36Q102.04 7.36 104.21 5.24 106.38 3.13 106.38-0.21L106.38-0.21 106.38-2.74Q104.99-1.35 103.1-0.54 101.21 0.28 99.05 0.28L99.05 0.28Q96.21 0.28 93.84-1.16 91.48-2.6 90.08-5.03 88.67-7.47 88.67-10.42L88.67-10.42Q88.67-13.37 90.08-15.8 91.48-18.23 93.84-19.67 96.21-21.11 99.05-21.11L99.05-21.11Q101.21-21.11 103.1-20.31 104.99-19.51 106.38-18.09L106.38-18.09 106.38-20.83 109.85-20.83 109.85 0Q109.85 3.4 108.27 5.83 106.69 8.26 104.12 9.55 101.55 10.83 98.57 10.83ZM99.54-3.13L99.54-3.13Q101.52-3.13 103.13-4.11 104.75-5.1 105.7-6.75 106.66-8.4 106.66-10.42L106.66-10.42Q106.66-12.43 105.7-14.08 104.75-15.73 103.13-16.72 101.52-17.71 99.54-17.71L99.54-17.71Q97.56-17.71 95.94-16.72 94.33-15.73 93.38-14.08 92.42-12.43 92.42-10.42L92.42-10.42Q92.42-8.4 93.38-6.75 94.33-5.1 95.94-4.11 97.56-3.13 99.54-3.13ZM120.27 0L116.52 0 116.52-20.83 119.99-20.83 119.99-17.01Q121.1-18.85 122.94-19.95 124.78-21.04 127.31-21.04L127.31-21.04 128.25-17.29Q127.59-17.5 126.72-17.5L126.72-17.5Q123.81-17.5 122.04-15.64 120.27-13.78 120.27-10.35L120.27-10.35 120.27 0ZM141.06 0.28L141.06 0.28Q138.21 0.28 135.85-1.16 133.49-2.6 132.09-5.03 130.68-7.47 130.68-10.42L130.68-10.42Q130.68-13.37 132.09-15.8 133.49-18.23 135.85-19.67 138.21-21.11 141.06-21.11L141.06-21.11Q143.21-21.11 145.11-20.31 147-19.51 148.39-18.09L148.39-18.09 148.39-20.83 151.86-20.83 151.86 0 148.39 0 148.39-2.74Q147-1.35 145.11-0.54 143.21 0.28 141.06 0.28ZM141.55-3.13L141.55-3.13Q143.53-3.13 145.14-4.11 146.76-5.1 147.71-6.75 148.67-8.4 148.67-10.42L148.67-10.42Q148.67-12.43 147.71-14.08 146.76-15.73 145.14-16.72 143.53-17.71 141.55-17.71L141.55-17.71Q139.57-17.71 137.95-16.72 136.34-15.73 135.38-14.08 134.43-12.43 134.43-10.42L134.43-10.42Q134.43-8.4 135.38-6.75 136.34-5.1 137.95-4.11 139.57-3.13 141.55-3.13ZM167.45 0.28L167.45 0.28Q164.6 0.28 162.24-1.16 159.88-2.6 158.47-5.03 157.07-7.47 157.07-10.42L157.07-10.42Q157.07-13.37 158.47-15.8 159.88-18.23 162.24-19.67 164.6-21.11 167.45-21.11L167.45-21.11Q169.5-21.11 171.3-20.38 173.11-19.65 174.5-18.37L174.5-18.37 174.5-33.33 178.25-33.33 178.25 0 174.77 0 174.77-2.74Q173.39-1.35 171.49-0.54 169.6 0.28 167.45 0.28ZM167.93-3.13L167.93-3.13Q169.91-3.13 171.53-4.11 173.14-5.1 174.1-6.75 175.05-8.4 175.05-10.42L175.05-10.42Q175.05-12.43 174.1-14.08 173.14-15.73 171.53-16.72 169.91-17.71 167.93-17.71L167.93-17.71Q165.95-17.71 164.34-16.72 162.73-15.73 161.77-14.08 160.82-12.43 160.82-10.42L160.82-10.42Q160.82-8.4 161.77-6.75 162.73-5.1 164.34-4.11 165.95-3.13 167.93-3.13ZM194.84 0.42L194.84 0.42Q191.58 0.42 188.99-1.04 186.4-2.5 184.93-5.02 183.45-7.53 183.45-10.63L183.45-10.63Q183.45-13.58 184.88-15.99 186.3-18.4 188.71-19.83 191.13-21.25 194.04-21.25L194.04-21.25Q196.92-21.25 199.32-19.88 201.72-18.51 203.14-16.18 204.56-13.85 204.56-10.9L204.56-10.9 204.56-9.38 190.95-9.38Q190.05-9.38 189.11-9.44 188.17-9.51 187.27-9.65L187.27-9.65Q187.65-6.88 189.79-5 191.92-3.13 194.88-3.13L194.88-3.13Q196.85-3.13 198.56-4.03 200.26-4.93 201.3-6.42L201.3-6.42 202.34-2.15Q200.85-0.94 198.92-0.26 196.99 0.42 194.84 0.42ZM187.17-12.19L187.17-12.19Q189.04-12.5 190.95-12.5L190.95-12.5 197.86-12.5Q198.63-12.5 199.37-12.45 200.12-12.4 200.88-12.33L200.88-12.33Q200.4-14.76 198.45-16.34 196.51-17.92 194.04-17.92L194.04-17.92Q191.51-17.92 189.6-16.23 187.69-14.55 187.17-12.19Z" opacity="1" transform="matrix(1,0,0,1,0,0)" fill="#03424c" class="wordmark-text-0" data-fill-palette-color="primary" id="text-0"></path></svg></g></svg></g></svg></g></svg></g><g transform="matrix(1,0,0,1,415.8643260619116,0)"><svg viewBox="0 0 119.09664098663927 119.09664098663927" height="119.09664098663927" width="119.09664098663927"><g data-palette-color="#f56607"><rect width="32.5530818696814" height="119.09664098663927" fill="#f56607" stroke="transparent" data-fill-palette-color="accent" x="0" fill-opacity="1"></rect><rect width="32.5530818696814" height="119.09664098663927" fill="#f56607" stroke="transparent" data-fill-palette-color="accent" x="39.69888032887975" fill-opacity="0.75"></rect><rect width="32.5530818696814" height="119.09664098663927" fill="#f56607" stroke="transparent" data-fill-palette-color="accent" x="79.3977606577595" fill-opacity="0.5"></rect></g></svg></g></svg></g><defs></defs></svg><rect width="395.52" height="88.05334658885589" fill="none" stroke="none" visibility="hidden"></rect></g></svg></g></svg>