<svg width="24" height="24" viewBox="0 0 24 24" fill="none" xmlns="http://www.w3.org/2000/svg">
<path d="M15.9961 20.9942V18.9947C15.9961 17.9342 15.5748 16.917 14.8249 16.1671C14.0749 15.4172 13.0578 14.9958 11.9972 14.9958H5.99889C4.93832 14.9958 3.92119 15.4172 3.17125 16.1671C2.42131 16.917 2 17.9342 2 18.9947V20.9942" stroke="#FF6B00" stroke-width="1.49959" stroke-linecap="round" stroke-linejoin="round"/>
<path d="M15.9961 3.12695C16.8536 3.34926 17.613 3.85002 18.1552 4.55062C18.6973 5.25123 18.9915 6.11202 18.9915 6.99788C18.9915 7.88375 18.6973 8.74454 18.1552 9.44514C17.613 10.1457 16.8536 10.6465 15.9961 10.8688" stroke="#FF6B00" stroke-width="1.49959" stroke-linecap="round" stroke-linejoin="round"/>
<path d="M21.9953 20.9941V18.9947C21.9946 18.1086 21.6997 17.2479 21.1569 16.5477C20.614 15.8474 19.854 15.3472 18.9961 15.1257" stroke="#FF6B00" stroke-width="1.49959" stroke-linecap="round" stroke-linejoin="round"/>
<path d="M8.99889 10.9971C11.2074 10.9971 12.9978 9.20669 12.9978 6.99816C12.9978 4.78963 11.2074 2.99927 8.99889 2.99927C6.79037 2.99927 5 4.78963 5 6.99816C5 9.20669 6.79037 10.9971 8.99889 10.9971Z" stroke="#FF6B00" stroke-width="1.49959" stroke-linecap="round" stroke-linejoin="round"/>
</svg>
