<svg width="28" height="28" viewBox="0 0 28 28" fill="none" xmlns="http://www.w3.org/2000/svg">
<path d="M18.6654 11.6658C18.6654 12.9034 18.1737 14.0904 17.2985 14.9656C16.4234 15.8408 15.2364 16.3324 13.9987 16.3324C12.761 16.3324 11.574 15.8408 10.6989 14.9656C9.8237 14.0904 9.33203 12.9034 9.33203 11.6658" stroke="#004852" stroke-width="1.74986" stroke-linecap="round" stroke-linejoin="round"/>
<path d="M3.62109 7.03906H24.3791" stroke="#004852" stroke-width="1.74986" stroke-linecap="round" stroke-linejoin="round"/>
<path d="M3.96663 6.37752C3.66374 6.78138 3.5 7.27259 3.5 7.77741V23.3313C3.5 23.9501 3.74581 24.5436 4.18336 24.9811C4.62091 25.4187 5.21436 25.6645 5.83315 25.6645H22.1652C22.784 25.6645 23.3774 25.4187 23.815 24.9811C24.2525 24.5436 24.4983 23.9501 24.4983 23.3313V7.77741C24.4983 7.27259 24.3346 6.78138 24.0317 6.37752L21.6986 3.26627C21.4812 2.9765 21.1994 2.74131 20.8755 2.57932C20.5515 2.41734 20.1943 2.33301 19.832 2.33301H8.1663C7.80409 2.33301 7.44685 2.41734 7.12288 2.57932C6.79891 2.74131 6.5171 2.9765 6.29978 3.26627L3.96663 6.37752Z" stroke="#004852" stroke-width="1.74986" stroke-linecap="round" stroke-linejoin="round"/>
</svg>
